{"title":"X-Men Day of Future Past 2014 HDCAM READNFO XViD-BL4CKP34RL","uid":10243726,"size":2047971027,"categoryP":"video","categoryS":"movies","magnet":"?xt=urn:btih:e9b2492e3bcf50ef06f836f8f68d175f99ac4e85&amp;dn=X-Men+Day+of+Future+Past+2014+HDCAM+READNFO+XViD-BL4CKP34RL&amp;tr=udp%3A%2F%2Ftracker.openbittorrent.com%3A80&amp;tr=udp%3A%2F%2Fopen.demonii.com%3A1337&amp;tr=udp%3A%2F%2Ftracker.coppersurfer.tk%3A6969&amp;tr=udp%3A%2F%2Fexodus.desync.com%3A6969","seeders":0,"leechers":0,"uploader":"xxxlavalxxx","files":-1,"time":1401271472,"description":"  &lt;a href=&quot;\nhttp://www.imdb.com/title/tt1877832/&quot; rel=&quot;nofollow&quot; target=&quot;_NEW&quot;&gt;\nhttp://www.imdb.com/title/tt1877832/&lt;/a&gt;\n\n\nThe X-Men send Wolverine to the past in a desperate effort to change history and prevent an event that results in doom for both humans and mutants.\n\nDirector: Bryan Singer\nWriters: Simon Kinberg (screenplay), Jane Goldman (story)\nStars: Patrick Stewart, Ian McKellen, Hugh Jackman\nGenres: Action | Adventure | Fantasy | Sci-Fi\n\n\nFormat: AVI\nFormat/Info: Audio Video Interleave\nFile size: 1.84 GiB\nDuration: 2h 2mn\nOverall bit rate: 2 158 Kbps\nWriting library: VirtualDub build 32839/release\n\nVideo\nID: 0\nFormat: MPEG-4 Visual\nFormat profile: Advanced Simple@L5\nFormat settings, BVOP: 2\nFormat settings, QPel: No\nFormat settings, GMC: No warppoints\nFormat settings, Matrix: Default (H.263)\nMuxing mode: Packed bitstream\nCodec ID: XVID\nCodec ID/Hint: XviD\nDuration: 2h 2mn\nBit rate: 2 021 Kbps\nWidth: 720 pixels\nHeight: 288 pixels\nDisplay aspect ratio: 2.500\nFrame rate: 23.976 fps\nColor space: YUV\nChroma subsampling: 4:2:0\nBit depth: 8 bits\nScan type: Progressive\nCompression mode: Lossy\nBits/(Pixel*Frame): 0.406\nStream size: 1.73 GiB (94%)\nWriting library: XviD 65\n\nAudio\nID: 1\nFormat: MPEG Audio\nFormat version: Version 1\nFormat profile: Layer 3\nMode: Joint stereo\nMode extension: MS Stereo\nCodec ID: 55\nCodec ID/Hint: MP3\nDuration: 2h 2mn\nBit rate mode: Constant\nBit rate: 128 Kbps\nChannel(s): 2 channels\nSampling rate: 48.0 KHz\nCompression mode: Lossy\nStream size: 112 MiB (6%)\nAlignment: Split accross interleaves\nInterleave, duration: 42 ms (1.00 video frame)\n\nSOURCES:\n\nVIDEO: ............. A Friend ...thanks\nAUDIO: ............. A Friend ...thanks\n\n\nNOTES:\n\nTook the file we got passed and made a script to crop and resize then dropped into vdub and did most the\nwork.. Denoised it, slight brightness, gamma adjustments and few other lil touches it is still a tad dark\nduring dark scenes but ITS NOT A FOOKIN BD SO DO NOT EXPECT IT TO BE..is it perfect NO and wont\nb til RETAIL SO DO NOT BITCH ABOUT SHIT U GET FOR FREE AND DO NOTHING FOR OTHER THAN CLICK &quot;DOWNLOAD&quot;\nenjoy til beetter source which we hear may be comin soon  and bigger filesize is due to it beign over 2 hrs\nlong and us wantint to keep decent bitrate for it ... AND IT DOES HAVE HC ENGLISH SUBS WHEN NEEDED\n\n2 SAMPLES INCLUDED\n\n\nscreens\n &lt;a href=&quot;\nhttp://i.imgur.com/x0wzRP7.jpg&quot; rel=&quot;nofollow&quot; target=&quot;_NEW&quot;&gt;\nhttp://i.imgur.com/x0wzRP7.jpg&lt;/a&gt; &lt;a href=&quot;\nhttp://i.imgur.com/RAofLNg.jpg&quot; rel=&quot;nofollow&quot; target=&quot;_NEW&quot;&gt;\nhttp://i.imgur.com/RAofLNg.jpg&lt;/a&gt; &lt;a href=&quot;\nhttp://i.imgur.com/XeWAQiR.jpg&quot; rel=&quot;nofollow&quot; target=&quot;_NEW&quot;&gt;\nhttp://i.imgur.com/XeWAQiR.jpg&lt;/a&gt; &lt;a href=&quot;\nhttp://i.imgur.com/ZzyZIvp.jpg&quot; rel=&quot;nofollow&quot; target=&quot;_NEW&quot;&gt;\nhttp://i.imgur.com/ZzyZIvp.jpg&lt;/a&gt; &lt;a href=&quot;\nhttp://i.imgur.com/JBroDvb.jpg&quot; rel=&quot;nofollow&quot; target=&quot;_NEW&quot;&gt;\nhttp://i.imgur.com/JBroDvb.jpg&lt;/a&gt; &lt;a href=&quot;\nhttp://i.imgur.com/WgNt3Va.jpg&quot; rel=&quot;nofollow&quot; target=&quot;_NEW&quot;&gt;\nhttp://i.imgur.com/WgNt3Va.jpg&lt;/a&gt;","torrent":{"xt":"urn:btih:e9b2492e3bcf50ef06f836f8f68d175f99ac4e85","amp;dn":"X-Men+Day+of+Future+Past+2014+HDCAM+READNFO+XViD-BL4CKP34RL","amp;tr":["udp%3A%2F%2Ftracker.openbittorrent.com%3A80","udp%3A%2F%2Fopen.demonii.com%3A1337","udp%3A%2F%2Ftracker.coppersurfer.tk%3A6969","udp%3A%2F%2Fexodus.desync.com%3A6969"],"infoHash":"e9b2492e3bcf50ef06f836f8f68d175f99ac4e85","infoHashBuffer":{"type":"Buffer","data":[233,178,73,46,59,207,80,239,6,248,54,248,246,141,23,95,153,172,78,133]},"announce":[],"urlList":[]}}